<?xml version="1.0" encoding="UTF-8"?>
<svg version="1.1" xmlns="http://www.w3.org/2000/svg" width="200" height="64">
<path d="M0 0 C0.98604721 -0.00145523 1.97209442 -0.00291046 2.98802185 -0.00440979 C5.07008828 -0.00275138 7.15216704 0.00880336 9.23413086 0.02954102 C12.42549519 0.05852021 15.61520108 0.05014369 18.80664062 0.03710938 C20.82943517 0.04334605 22.85222447 0.05173643 24.875 0.0625 C25.83128799 0.05956436 26.78757599 0.05662872 27.77284241 0.05360413 C29.10453712 0.07263039 29.10453712 0.07263039 30.46313477 0.09204102 C31.63417503 0.10014549 31.63417503 0.10014549 32.82887268 0.1084137 C35.41718115 0.59975892 36.30681835 1.40300882 37.87109375 3.49609375 C38.25927734 6.63476563 38.25927734 6.63476563 38.26953125 10.46484375 C38.27240143 11.14156128 38.27527161 11.81827881 38.27822876 12.51550293 C38.28026772 13.94442584 38.27474944 15.37337677 38.26220703 16.80224609 C38.24614886 18.988591 38.26205909 21.17308754 38.28125 23.359375 C38.27926754 24.74870199 38.27542379 26.13802784 38.26953125 27.52734375 C38.26614746 28.79126953 38.26276367 30.05519531 38.25927734 31.35742188 C37.87109375 34.49609375 37.87109375 34.49609375 36.47119141 36.36914062 C32.83708754 38.92864985 29.53460313 38.61002421 25.24609375 38.55859375 C24.5396875 38.55408203 23.83328125 38.54957031 23.10546875 38.54492188 C21.360641 38.5331325 19.61585675 38.51519699 17.87109375 38.49609375 C17.87109375 39.81609375 17.87109375 41.13609375 17.87109375 42.49609375 C20.18109375 42.82609375 22.49109375 43.15609375 24.87109375 43.49609375 C25.36609375 46.46609375 25.36609375 46.46609375 25.87109375 49.49609375 C16.96109375 49.49609375 8.05109375 49.49609375 -1.12890625 49.49609375 C-1.12890625 44.49609375 -1.12890625 44.49609375 0.87109375 42.49609375 C3.49609375 41.87109375 3.49609375 41.87109375 5.87109375 41.49609375 C6.20109375 40.50609375 6.53109375 39.51609375 6.87109375 38.49609375 C5.77410156 38.55410156 4.67710938 38.61210938 3.546875 38.671875 C2.09249061 38.71879063 0.63806001 38.76428886 -0.81640625 38.80859375 C-1.53763672 38.85048828 -2.25886719 38.89238281 -3.00195312 38.93554688 C-4.0605957 38.9597168 -4.0605957 38.9597168 -5.140625 38.984375 C-5.78475342 39.01055908 -6.42888184 39.03674316 -7.0925293 39.0637207 C-10.47649474 38.12046214 -11.98269879 36.20242017 -14.12890625 33.49609375 C-14.76000977 30.32983398 -14.76000977 30.32983398 -14.7578125 26.8046875 C-14.75974609 25.53044922 -14.76167969 24.25621094 -14.76367188 22.94335938 C-14.75118408 22.28505127 -14.73869629 21.62674316 -14.72583008 20.94848633 C-14.69142932 18.93494382 -14.70520232 16.92577518 -14.72460938 14.91210938 C-14.65224301 5.38387115 -14.65224301 5.38387115 -12.7265625 2.1171875 C-8.65240587 -0.4253313 -4.70847235 -0.05543004 0 0 Z M-9.12890625 5.49609375 C-9.14953125 9.93046875 -9.17015625 14.36484375 -9.19140625 18.93359375 C-9.20051025 20.33407959 -9.20961426 21.73456543 -9.21899414 23.17749023 C-9.2214917 24.27134033 -9.22398926 25.36519043 -9.2265625 26.4921875 C-9.23179932 27.61810303 -9.23703613 28.74401855 -9.24243164 29.90405273 C-9.42436073 32.42580246 -9.42436073 32.42580246 -8.12890625 33.49609375 C-5.18355055 33.59719728 -2.26213065 33.63578654 0.68359375 33.62890625 C1.56764893 33.62986298 2.4517041 33.6308197 3.36254883 33.63180542 C5.23551504 33.63248726 7.10848361 33.63063268 8.98144531 33.62646484 C11.85877763 33.62111664 14.73595383 33.62640968 17.61328125 33.6328125 C19.42838576 33.63215172 21.24349018 33.63087056 23.05859375 33.62890625 C24.358573 33.6319426 24.358573 33.6319426 25.68481445 33.63504028 C29.59112594 34.00869789 29.59112594 34.00869789 32.87109375 32.49609375 C32.95867378 30.49644393 32.97805951 28.49373265 32.96875 26.4921875 C32.96625244 25.3983374 32.96375488 24.3044873 32.96118164 23.17749023 C32.95207764 21.77700439 32.94297363 20.37651855 32.93359375 18.93359375 C32.91296875 14.49921875 32.89234375 10.06484375 32.87109375 5.49609375 C19.01109375 5.49609375 5.15109375 5.49609375 -9.12890625 5.49609375 Z " fill="#CECED1" transform="translate(33.12890625,8.50390625)"/>
<path d="M0 0 C6 0 6 0 7.9765625 1.7578125 C8.52054688 2.53898437 9.06453125 3.32015625 9.625 4.125 C10.17414063 4.89070313 10.72328125 5.65640625 11.2890625 6.4453125 C13.19693278 9.29405032 15.09815667 12.14723501 17 15 C17.33 10.05 17.66 5.1 18 0 C20.31 0 22.62 0 25 0 C25 9.57 25 19.14 25 29 C18 29 18 29 16.28735352 27.71484375 C15.90506592 27.12832031 15.52277832 26.54179688 15.12890625 25.9375 C14.70029297 25.30585937 14.27167969 24.67421875 13.83007812 24.0234375 C13.41177734 23.35570313 12.99347656 22.68796875 12.5625 22 C12.11712891 21.33226563 11.67175781 20.66453125 11.21289062 19.9765625 C10.12033222 18.33185092 9.0571836 16.6676699 8 15 C7.67 19.62 7.34 24.24 7 29 C4.69 29 2.38 29 0 29 C0 19.43 0 9.86 0 0 Z " fill="#DFDFE1" transform="translate(101,16)"/>
<path d="M0 0 C2.64 0 5.28 0 8 0 C9.67482275 4.26767998 11.33845499 8.53963493 13 12.8125 C13.47695312 14.02744141 13.95390625 15.24238281 14.4453125 16.49414062 C14.89648438 17.65751953 15.34765625 18.82089844 15.8125 20.01953125 C16.23144531 21.09307861 16.65039062 22.16662598 17.08203125 23.27270508 C18 26 18 26 18 29 C15.69 29 13.38 29 11 29 C10.34 27.35 9.68 25.7 9 24 C5.95095978 23.7123547 3.03605467 23.53668825 0 24 C-1.6446674 26.46326712 -1.6446674 26.46326712 -3 29 C-6.6875 29.3125 -6.6875 29.3125 -10 29 C-9.34741705 25.23185973 -8.29013667 21.83458532 -6.93359375 18.26171875 C-6.53076172 17.19501953 -6.12792969 16.12832031 -5.71289062 15.02929688 C-5.29201172 13.92650391 -4.87113281 12.82371094 -4.4375 11.6875 C-4.01275391 10.56537109 -3.58800781 9.44324219 -3.15039062 8.28710938 C-2.10371244 5.52340854 -1.05347135 2.76111699 0 0 Z M3 10 C2.34 12.31 1.68 14.62 1 17 C2.65 17 4.3 17 6 17 C5.65772428 14.02934491 5.65772428 14.02934491 5 11 C4.34 10.67 3.68 10.34 3 10 Z " fill="#D4D5D7" transform="translate(162,16)"/>
<path d="M0 0 C6.6 0 13.2 0 20 0 C20 1.98 20 3.96 20 6 C15.71 6 11.42 6 7 6 C7 7.65 7 9.3 7 11 C10.63 11 14.26 11 18 11 C18 13.31 18 15.62 18 18 C14.37 18 10.74 18 7 18 C7 19.65 7 21.3 7 23 C11.29 23 15.58 23 20 23 C20 24.98 20 26.96 20 29 C13.4 29 6.8 29 0 29 C0 19.43 0 9.86 0 0 Z " fill="#CED0D4" transform="translate(78,16)"/>
<path d="M0 0 C2.64 0 5.28 0 8 0 C9.98 5.94 11.96 11.88 14 18 C16.31 12.06 18.62 6.12 21 0 C23.31 0 25.62 0 28 0 C27.33519127 6.09754259 25.11689573 11.60206273 23 17.3125 C22.44699219 18.83327148 22.44699219 18.83327148 21.8828125 20.38476562 C19.1385086 27.8614914 19.1385086 27.8614914 18 29 C15.32941149 29.14115161 12.67567762 29.04247107 10 29 C8.57169148 25.19295001 7.14763945 21.38433843 5.72753906 17.57421875 C5.24368589 16.27788194 4.75866515 14.9819803 4.27246094 13.68652344 C3.57441411 11.82601495 2.88089053 9.96381135 2.1875 8.1015625 C1.76855469 6.98088379 1.34960938 5.86020508 0.91796875 4.70556641 C0 2 0 2 0 0 Z " fill="#D1D2D5" transform="translate(128,16)"/>
<path d="M0 0 C2.4375 0.8125 2.4375 0.8125 4.4375 3.8125 C4.499375 4.76125 4.56125 5.71 4.625 6.6875 C5.55587727 10.26779719 6.0330493 10.48639885 9 12.375 C12.36946494 14.52675277 12.36946494 14.52675277 13.0625 17.4375 C12.32645205 20.23448223 11.9335316 21.31488104 9.4375 22.8125 C6.25 22.5 6.25 22.5 3.4375 21.8125 C3.1075 20.8225 2.7775 19.8325 2.4375 18.8125 C-2.46199987 19.18749415 -2.46199987 19.18749415 -6.6875 21.4375 C-8.5625 22.8125 -8.5625 22.8125 -11.1875 22.6875 C-13.5625 21.8125 -13.5625 21.8125 -15.5625 18.8125 C-15.5625 16.3125 -15.5625 16.3125 -14.5625 13.8125 C-13.61375 13.4 -12.665 12.9875 -11.6875 12.5625 C-8.0998373 10.55340889 -7.9930704 9.99882429 -6.875 6.25 C-6.68550781 5.46496094 -6.49601562 4.67992187 -6.30078125 3.87109375 C-5.11849276 0.57444807 -3.40398574 -0.24907213 0 0 Z M-1.5625 3.8125 C-1.8925 4.8025 -2.2225 5.7925 -2.5625 6.8125 C-1.5725 6.4825 -0.5825 6.1525 0.4375 5.8125 C-0.2225 5.1525 -0.8825 4.4925 -1.5625 3.8125 Z M-3.5625 10.8125 C-4.2225 12.4625 -4.8825 14.1125 -5.5625 15.8125 C-2.9225 15.8125 -0.2825 15.8125 2.4375 15.8125 C2.1075 14.1625 1.7775 12.5125 1.4375 10.8125 C-0.2125 10.8125 -1.8625 10.8125 -3.5625 10.8125 Z M-10.5625 15.8125 C-10.5625 16.8025 -10.5625 17.7925 -10.5625 18.8125 C-9.9025 18.8125 -9.2425 18.8125 -8.5625 18.8125 C-8.8925 17.8225 -9.2225 16.8325 -9.5625 15.8125 C-9.8925 15.8125 -10.2225 15.8125 -10.5625 15.8125 Z M6.4375 15.8125 C6.4375 16.8025 6.4375 17.7925 6.4375 18.8125 C7.0975 18.8125 7.7575 18.8125 8.4375 18.8125 C8.1075 17.8225 7.7775 16.8325 7.4375 15.8125 C7.1075 15.8125 6.7775 15.8125 6.4375 15.8125 Z " fill="#CACACC" transform="translate(46.5625,16.1875)"/>
</svg>
