<?xml version="1.0" encoding="UTF-8"?>
<svg version="1.1" xmlns="http://www.w3.org/2000/svg" width="200" height="64">
<path d="M0 0 C0.98604721 -0.00145523 1.97209442 -0.00291046 2.98802185 -0.00440979 C5.07008828 -0.00275138 7.15216704 0.00880336 9.23413086 0.02954102 C12.42549519 0.05852021 15.61520108 0.05014369 18.80664062 0.03710938 C20.82943517 0.04334605 22.85222447 0.05173643 24.875 0.0625 C25.83128799 0.05956436 26.78757599 0.05662872 27.77284241 0.05360413 C29.10453712 0.07263039 29.10453712 0.07263039 30.46313477 0.09204102 C31.63417503 0.10014549 31.63417503 0.10014549 32.82887268 0.1084137 C35.41718115 0.59975892 36.30681835 1.40300882 37.87109375 3.49609375 C38.25927734 6.63476563 38.25927734 6.63476563 38.26953125 10.46484375 C38.27240143 11.14156128 38.27527161 11.81827881 38.27822876 12.51550293 C38.28026772 13.94442584 38.27474944 15.37337677 38.26220703 16.80224609 C38.24614886 18.988591 38.26205909 21.17308754 38.28125 23.359375 C38.27926754 24.74870199 38.27542379 26.13802784 38.26953125 27.52734375 C38.26614746 28.79126953 38.26276367 30.05519531 38.25927734 31.35742188 C37.87109375 34.49609375 37.87109375 34.49609375 36.47119141 36.36914062 C32.83708754 38.92864985 29.53460313 38.61002421 25.24609375 38.55859375 C24.5396875 38.55408203 23.83328125 38.54957031 23.10546875 38.54492188 C21.360641 38.5331325 19.61585675 38.51519699 17.87109375 38.49609375 C17.87109375 39.81609375 17.87109375 41.13609375 17.87109375 42.49609375 C20.18109375 42.82609375 22.49109375 43.15609375 24.87109375 43.49609375 C25.36609375 46.46609375 25.36609375 46.46609375 25.87109375 49.49609375 C16.96109375 49.49609375 8.05109375 49.49609375 -1.12890625 49.49609375 C-1.12890625 44.49609375 -1.12890625 44.49609375 0.87109375 42.49609375 C3.49609375 41.87109375 3.49609375 41.87109375 5.87109375 41.49609375 C6.20109375 40.50609375 6.53109375 39.51609375 6.87109375 38.49609375 C5.77410156 38.55410156 4.67710938 38.61210938 3.546875 38.671875 C2.09249061 38.71879063 0.63806001 38.76428886 -0.81640625 38.80859375 C-1.53763672 38.85048828 -2.25886719 38.89238281 -3.00195312 38.93554688 C-4.0605957 38.9597168 -4.0605957 38.9597168 -5.140625 38.984375 C-5.78475342 39.01055908 -6.42888184 39.03674316 -7.0925293 39.0637207 C-10.47649474 38.12046214 -11.98269879 36.20242017 -14.12890625 33.49609375 C-14.76000977 30.32983398 -14.76000977 30.32983398 -14.7578125 26.8046875 C-14.75974609 25.53044922 -14.76167969 24.25621094 -14.76367188 22.94335938 C-14.75118408 22.28505127 -14.73869629 21.62674316 -14.72583008 20.94848633 C-14.69142932 18.93494382 -14.70520232 16.92577518 -14.72460938 14.91210938 C-14.65224301 5.38387115 -14.65224301 5.38387115 -12.7265625 2.1171875 C-8.65240587 -0.4253313 -4.70847235 -0.05543004 0 0 Z M-9.12890625 5.49609375 C-9.14953125 9.93046875 -9.17015625 14.36484375 -9.19140625 18.93359375 C-9.20051025 20.33407959 -9.20961426 21.73456543 -9.21899414 23.17749023 C-9.2214917 24.27134033 -9.22398926 25.36519043 -9.2265625 26.4921875 C-9.23179932 27.61810303 -9.23703613 28.74401855 -9.24243164 29.90405273 C-9.42436073 32.42580246 -9.42436073 32.42580246 -8.12890625 33.49609375 C-5.18355055 33.59719728 -2.26213065 33.63578654 0.68359375 33.62890625 C1.56764893 33.62986298 2.4517041 33.6308197 3.36254883 33.63180542 C5.23551504 33.63248726 7.10848361 33.63063268 8.98144531 33.62646484 C11.85877763 33.62111664 14.73595383 33.62640968 17.61328125 33.6328125 C19.42838576 33.63215172 21.24349018 33.63087056 23.05859375 33.62890625 C24.358573 33.6319426 24.358573 33.6319426 25.68481445 33.63504028 C29.59112594 34.00869789 29.59112594 34.00869789 32.87109375 32.49609375 C32.95867378 30.49644393 32.97805951 28.49373265 32.96875 26.4921875 C32.96625244 25.3983374 32.96375488 24.3044873 32.96118164 23.17749023 C32.95207764 21.77700439 32.94297363 20.37651855 32.93359375 18.93359375 C32.91296875 14.49921875 32.89234375 10.06484375 32.87109375 5.49609375 C19.01109375 5.49609375 5.15109375 5.49609375 -9.12890625 5.49609375 Z " fill="#8E8E8F" transform="translate(33.12890625,8.50390625)"/>
<path d="M0 0 C6 0 6 0 7.9765625 1.7578125 C8.52054688 2.53898437 9.06453125 3.32015625 9.625 4.125 C10.17414063 4.89070313 10.72328125 5.65640625 11.2890625 6.4453125 C13.19693278 9.29405032 15.09815667 12.14723501 17 15 C17.33 10.05 17.66 5.1 18 0 C20.31 0 22.62 0 25 0 C25 9.57 25 19.14 25 29 C18 29 18 29 16.28735352 27.71484375 C15.90506592 27.12832031 15.52277832 26.54179688 15.12890625 25.9375 C14.70029297 25.30585937 14.27167969 24.67421875 13.83007812 24.0234375 C13.41177734 23.35570313 12.99347656 22.68796875 12.5625 22 C12.11712891 21.33226563 11.67175781 20.66453125 11.21289062 19.9765625 C10.12033222 18.33185092 9.0571836 16.6676699 8 15 C7.67 19.62 7.34 24.24 7 29 C4.69 29 2.38 29 0 29 C0 19.43 0 9.86 0 0 Z " fill="#D3D3D5" transform="translate(101,16)"/>
<path d="M0 0 C2.64 0 5.28 0 8 0 C9.67482275 4.26767998 11.33845499 8.53963493 13 12.8125 C13.47695312 14.02744141 13.95390625 15.24238281 14.4453125 16.49414062 C14.89648438 17.65751953 15.34765625 18.82089844 15.8125 20.01953125 C16.23144531 21.09307861 16.65039062 22.16662598 17.08203125 23.27270508 C18 26 18 26 18 29 C15.69 29 13.38 29 11 29 C10.34 27.35 9.68 25.7 9 24 C5.95095978 23.7123547 3.03605467 23.53668825 0 24 C-1.6446674 26.46326712 -1.6446674 26.46326712 -3 29 C-6.6875 29.3125 -6.6875 29.3125 -10 29 C-9.34741705 25.23185973 -8.29013667 21.83458532 -6.93359375 18.26171875 C-6.53076172 17.19501953 -6.12792969 16.12832031 -5.71289062 15.02929688 C-5.29201172 13.92650391 -4.87113281 12.82371094 -4.4375 11.6875 C-4.01275391 10.56537109 -3.58800781 9.44324219 -3.15039062 8.28710938 C-2.10371244 5.52340854 -1.05347135 2.76111699 0 0 Z M3 10 C2.34 12.31 1.68 14.62 1 17 C2.65 17 4.3 17 6 17 C5.65772428 14.02934491 5.65772428 14.02934491 5 11 C4.34 10.67 3.68 10.34 3 10 Z " fill="#E4E4E4" transform="translate(162,16)"/>
<path d="M0 0 C6.6 0 13.2 0 20 0 C20 1.98 20 3.96 20 6 C15.71 6 11.42 6 7 6 C7 7.65 7 9.3 7 11 C10.63 11 14.26 11 18 11 C18 13.31 18 15.62 18 18 C14.37 18 10.74 18 7 18 C7 19.65 7 21.3 7 23 C11.29 23 15.58 23 20 23 C20 24.98 20 26.96 20 29 C13.4 29 6.8 29 0 29 C0 19.43 0 9.86 0 0 Z " fill="#555A66" transform="translate(78,16)"/>
<path d="M0 0 C2.64 0 5.28 0 8 0 C9.98 5.94 11.96 11.88 14 18 C16.31 12.06 18.62 6.12 21 0 C23.31 0 25.62 0 28 0 C27.33519127 6.09754259 25.11689573 11.60206273 23 17.3125 C22.44699219 18.83327148 22.44699219 18.83327148 21.8828125 20.38476562 C19.1385086 27.8614914 19.1385086 27.8614914 18 29 C15.32941149 29.14115161 12.67567762 29.04247107 10 29 C8.57169148 25.19295001 7.14763945 21.38433843 5.72753906 17.57421875 C5.24368589 16.27788194 4.75866515 14.9819803 4.27246094 13.68652344 C3.57441411 11.82601495 2.88089053 9.96381135 2.1875 8.1015625 C1.76855469 6.98088379 1.34960938 5.86020508 0.91796875 4.70556641 C0 2 0 2 0 0 Z " fill="#9A9B9E" transform="translate(128,16)"/>
<path d="M0 0 C2.4375 0.8125 2.4375 0.8125 4.4375 3.8125 C4.499375 4.76125 4.56125 5.71 4.625 6.6875 C5.55587727 10.26779719 6.0330493 10.48639885 9 12.375 C12.36946494 14.52675277 12.36946494 14.52675277 13.0625 17.4375 C12.32645205 20.23448223 11.9335316 21.31488104 9.4375 22.8125 C6.25 22.5 6.25 22.5 3.4375 21.8125 C3.1075 20.8225 2.7775 19.8325 2.4375 18.8125 C-2.46199987 19.18749415 -2.46199987 19.18749415 -6.6875 21.4375 C-8.5625 22.8125 -8.5625 22.8125 -11.1875 22.6875 C-13.5625 21.8125 -13.5625 21.8125 -15.5625 18.8125 C-15.5625 16.3125 -15.5625 16.3125 -14.5625 13.8125 C-13.61375 13.4 -12.665 12.9875 -11.6875 12.5625 C-8.0998373 10.55340889 -7.9930704 9.99882429 -6.875 6.25 C-6.68550781 5.46496094 -6.49601562 4.67992187 -6.30078125 3.87109375 C-5.11849276 0.57444807 -3.40398574 -0.24907213 0 0 Z M-1.5625 3.8125 C-1.8925 4.8025 -2.2225 5.7925 -2.5625 6.8125 C-1.5725 6.4825 -0.5825 6.1525 0.4375 5.8125 C-0.2225 5.1525 -0.8825 4.4925 -1.5625 3.8125 Z M-3.5625 10.8125 C-4.2225 12.4625 -4.8825 14.1125 -5.5625 15.8125 C-2.9225 15.8125 -0.2825 15.8125 2.4375 15.8125 C2.1075 14.1625 1.7775 12.5125 1.4375 10.8125 C-0.2125 10.8125 -1.8625 10.8125 -3.5625 10.8125 Z M-10.5625 15.8125 C-10.5625 16.8025 -10.5625 17.7925 -10.5625 18.8125 C-9.9025 18.8125 -9.2425 18.8125 -8.5625 18.8125 C-8.8925 17.8225 -9.2225 16.8325 -9.5625 15.8125 C-9.8925 15.8125 -10.2225 15.8125 -10.5625 15.8125 Z M6.4375 15.8125 C6.4375 16.8025 6.4375 17.7925 6.4375 18.8125 C7.0975 18.8125 7.7575 18.8125 8.4375 18.8125 C8.1075 17.8225 7.7775 16.8325 7.4375 15.8125 C7.1075 15.8125 6.7775 15.8125 6.4375 15.8125 Z " fill="#A3A4A5" transform="translate(46.5625,16.1875)"/>
<path d="M0 0 C4.35990873 -0.07418046 8.71948279 -0.12861544 13.07983398 -0.16479492 C14.56297199 -0.17987768 16.04606544 -0.20034689 17.52905273 -0.22631836 C19.66140745 -0.26272616 21.79317235 -0.27973073 23.92578125 -0.29296875 C25.85031128 -0.31653442 25.85031128 -0.31653442 27.8137207 -0.34057617 C31 0 31 0 32.92382812 1.10351562 C34.54839039 3.96640121 34.33581871 6.36583839 34.29296875 9.63671875 C34.2784668 11.58481445 34.2784668 11.58481445 34.26367188 13.57226562 C34.23860585 14.94401639 34.21321101 16.31576118 34.1875 17.6875 C34.1724502 19.07094924 34.1587623 20.45441401 34.14648438 21.83789062 C34.11107223 25.22565207 34.06168054 28.61263139 34 32 C32.68 32 31.36 32 30 32 C29.67 23.09 29.34 14.18 29 5 C20.86272245 4.71089869 20.86272245 4.71089869 12.72509766 4.43188477 C11.71495605 4.39377686 10.70481445 4.35566895 9.6640625 4.31640625 C8.62717285 4.27974854 7.5902832 4.24309082 6.52197266 4.20532227 C4 4 4 4 2 3 C2 2.34 2 1.68 2 1 C1.34 0.67 0.68 0.34 0 0 Z " fill="#EAEAEA" transform="translate(37,9)"/>
<path d="M0 0 C1.87365234 0.00966797 1.87365234 0.00966797 3.78515625 0.01953125 C6.9375 0.1875 6.9375 0.1875 8.9375 1.1875 C8.9375 1.8475 8.9375 2.5075 8.9375 3.1875 C22.3025 3.6825 22.3025 3.6825 35.9375 4.1875 C35.9375 4.5175 35.9375 4.8475 35.9375 5.1875 C22.0775 5.1875 8.2175 5.1875 -6.0625 5.1875 C-6.0625 13.1075 -6.0625 21.0275 -6.0625 29.1875 C-6.7225 28.8575 -7.3825 28.5275 -8.0625 28.1875 C-8.0625 27.1975 -8.0625 26.2075 -8.0625 25.1875 C-8.7225 25.1875 -9.3825 25.1875 -10.0625 25.1875 C-10.1492982 21.39597666 -10.20282207 17.60470704 -10.25 13.8125 C-10.27513672 12.73226563 -10.30027344 11.65203125 -10.32617188 10.5390625 C-10.33583984 9.5078125 -10.34550781 8.4765625 -10.35546875 7.4140625 C-10.37903442 5.98441162 -10.37903442 5.98441162 -10.40307617 4.52587891 C-10.29068604 3.75421387 -10.1782959 2.98254883 -10.0625 2.1875 C-6.36008718 -0.28077522 -4.4033889 -0.05009026 0 0 Z " fill="#696975" transform="translate(30.0625,8.8125)"/>
<path d="M0 0 C1.98 0 3.96 0 6 0 C6 9.24 6 18.48 6 28 C3.69 28 1.38 28 -1 28 C-5 23.28205128 -5 23.28205128 -5 20 C-4.34 20 -3.68 20 -3 20 C-3 19.01 -3 18.02 -3 17 C-2.01 17 -1.02 17 0 17 C0 11.39 0 5.78 0 0 Z " fill="#D5D5D5" transform="translate(120,17)"/>
<path d="M0 0 C5.94 0 11.88 0 18 0 C18 1.65 18 3.3 18 5 C14.04 5 10.08 5 6 5 C6 6.98 6 8.96 6 11 C9.3 11 12.6 11 16 11 C16 12.65 16 14.3 16 16 C12.04 16 8.08 16 4 16 C4 15.01 4 14.02 4 13 C3.34 13 2.68 13 2 13 C1.67 14.65 1.34 16.3 1 18 C0.67 18 0.34 18 0 18 C0 12.06 0 6.12 0 0 Z " fill="#F3F3F3" transform="translate(79,17)"/>
<path d="M0 0 C2.64 0 5.28 0 8 0 C10.8917284 7.51333004 12.64323227 13.92386148 12 22 C11.34 22 10.68 22 10 22 C10 21.34 10 20.68 10 20 C9.40703125 19.835 8.8140625 19.67 8.203125 19.5 C4.76624559 17.159997 4.06292545 13.83159875 2.75 10 C2.3478125 8.89398437 2.3478125 8.89398437 1.9375 7.765625 C0 2.34853316 0 2.34853316 0 0 Z " fill="#B1B3B8" transform="translate(128,16)"/>
<path d="M0 0 C0.33 0 0.66 0 1 0 C1 6.93 1 13.86 1 21 C1.66 21 2.32 21 3 21 C3.99 23.31 4.98 25.62 6 28 C9.63 28.33 13.26 28.66 17 29 C16.67 30.32 16.34 31.64 16 33 C17.65 33 19.3 33 21 33 C21 33.33 21 33.66 21 34 C18.43571485 34.13559675 15.87864784 34.23433188 13.3125 34.3125 C12.59126953 34.35439453 11.87003906 34.39628906 11.12695312 34.43945312 C10.06831055 34.46362305 10.06831055 34.46362305 8.98828125 34.48828125 C8.34415283 34.51446533 7.70002441 34.54064941 7.03637695 34.56762695 C3.64369027 33.6219374 2.14310747 31.72108594 0 29 C-0.56762695 25.77026367 -0.56762695 25.77026367 -0.48828125 22.16796875 C-0.47216797 20.87568359 -0.45605469 19.58339844 -0.43945312 18.25195312 C-0.39768274 16.89711843 -0.35535809 15.54230072 -0.3125 14.1875 C-0.28740069 12.81319134 -0.26459036 11.43883884 -0.24414062 10.06445312 C-0.18526461 6.70852024 -0.1030642 3.3548191 0 0 Z " fill="#5D5965" transform="translate(19,13)"/>
<path d="M0 0 C7.92 0 15.84 0 24 0 C20 4 20 4 16.75 4.25 C15.8425 4.1675 14.935 4.085 14 4 C13.731875 4.639375 13.46375 5.27875 13.1875 5.9375 C12 8 12 8 9 9 C6.3125 8.0625 6.3125 8.0625 4 7 C4 6.01 4 5.02 4 4 C2.35 4 0.7 4 -1 4 C-0.67 2.68 -0.34 1.36 0 0 Z " fill="#E1E1E1" transform="translate(36,42)"/>
<path d="M0 0 C3.34192692 0.24453124 4.60543557 0.60543557 7 3 C7.3633156 5.83386167 7.3568671 7.40522151 5.875 9.875 C3.07848948 11.55290631 1.06309468 10.74875648 -2 10 C-2.33 9.01 -2.66 8.02 -3 7 C-4.3303125 7.061875 -4.3303125 7.061875 -5.6875 7.125 C-8.97277013 7.00102754 -11.05449295 6.38612096 -14 5 C-13.67 3.68 -13.34 2.36 -13 1 C-12.34 1 -11.68 1 -11 1 C-11 1.99 -11 2.98 -11 4 C-4.73273688 3.63256245 -4.73273688 3.63256245 0 0 Z M1 4 C1 4.99 1 5.98 1 7 C1.66 7 2.32 7 3 7 C2.67 6.01 2.34 5.02 2 4 C1.67 4 1.34 4 1 4 Z " fill="#BBBBBD" transform="translate(52,28)"/>
<path d="M0 0 C2.31 0 4.62 0 7 0 C6.27018765 6.13042372 4.48631884 10.71760474 0 15 C-0.33 15.99 -0.66 16.98 -1 18 C-1.99 17.67 -2.98 17.34 -4 17 C-4.56131481 10.54487966 -2.63463787 5.84560277 0 0 Z " fill="#BFC1C5" transform="translate(149,16)"/>
<path d="M0 0 C3.36610811 2.24407208 3.78288384 3.27258198 5.1875 6.9375 C5.53167969 7.81277344 5.87585938 8.68804687 6.23046875 9.58984375 C7 12 7 12 7 15 C3.625 15.1875 3.625 15.1875 0 15 C-2 12 -2 12 -2 9 C-2.99 9 -3.98 9 -5 9 C-5.33 8.01 -5.66 7.02 -6 6 C-4.5625 3.8125 -4.5625 3.8125 -3 2 C-3 2.66 -3 3.32 -3 4 C-2.34 4 -1.68 4 -1 4 C-0.67 2.68 -0.34 1.36 0 0 Z " fill="#E5E5E5" transform="translate(173,30)"/>
<path d="M0 0 C9.57 0 19.14 0 29 0 C29.33 0.66 29.66 1.32 30 2 C28.68 1.67 27.36 1.34 26 1 C26 1.66 26 2.32 26 3 C26.66 3.33 27.32 3.66 28 4 C24.04168191 4.02892857 20.08339083 4.04677427 16.125 4.0625 C14.43310547 4.07506836 14.43310547 4.07506836 12.70703125 4.08789062 C11.63066406 4.09111328 10.55429687 4.09433594 9.4453125 4.09765625 C8.45031738 4.10289307 7.45532227 4.10812988 6.43017578 4.11352539 C4 4 4 4 2 3 C2 2.34 2 1.68 2 1 C1.34 0.67 0.68 0.34 0 0 Z " fill="#EBEBEB" transform="translate(37,9)"/>
<path d="M0 0 C4.95 0 9.9 0 15 0 C15 1.98 15 3.96 15 6 C9.06 6 3.12 6 -3 6 C-2.01 4.02 -1.02 2.04 0 0 Z " fill="#F1F1F1" transform="translate(83,39)"/>
<path d="M0 0 C0.33 0 0.66 0 1 0 C1.33 8.91 1.66 17.82 2 27 C2.99 27 3.98 27 5 27 C4.75 28.875 4.75 28.875 4 31 C0.39985588 33.59210377 -3.50599726 33.22929496 -7.75 33.125 C-8.44738281 33.11597656 -9.14476562 33.10695312 -9.86328125 33.09765625 C-11.57566958 33.07419888 -13.28788004 33.03833104 -15 33 C-15.33 33.99 -15.66 34.98 -16 36 C-16 34.68 -16 33.36 -16 32 C-13.98177083 31.54427083 -11.96354167 31.08854167 -9.9453125 30.6328125 C-7.79280036 30.09525572 -7.79280036 30.09525572 -6 28 C-4.35 27.67 -2.7 27.34 -1 27 C-0.67 18.09 -0.34 9.18 0 0 Z " fill="#61616F" transform="translate(66,14)"/>
<path d="M0 0 C2.3125 -0.3125 2.3125 -0.3125 5 0 C7.7700375 3.34314871 8.22965783 5.7513302 8 10 C8.33 10.66 8.66 11.32 9 12 C8.67 12.66 8.34 13.32 8 14 C5.625 13.8125 5.625 13.8125 3 13 C1.6875 10.4375 1.6875 10.4375 1 8 C0.01 8.495 0.01 8.495 -1 9 C-2.0326802 6.21176345 -2.04509293 5.1322726 -1.0625 2.25 C-0.711875 1.5075 -0.36125 0.765 0 0 Z " fill="#E1E1E2" transform="translate(164,17)"/>
<path d="M0 0 C2.31 0 4.62 0 7 0 C7 0.33 7 0.66 7 1 C5.02 1 3.04 1 1 1 C1 6.61 1 12.22 1 18 C0.01 18 -0.98 18 -2 18 C-2 18.99 -2 19.98 -2 21 C-2.99 21.33 -3.98 21.66 -5 22 C-7.475 18.04 -7.475 18.04 -10 14 C-9.34 13.34 -8.68 12.68 -8 12 C-7.30251417 10.68252676 -6.63040043 9.35085807 -6 8 C-3.525 11.465 -3.525 11.465 -1 15 C-0.67 10.05 -0.34 5.1 0 0 Z " fill="#96959B" transform="translate(119,16)"/>
<path d="M0 0 C1.98 0.99 1.98 0.99 4 2 C4 9.59 4 17.18 4 25 C3.34 24.67 2.68 24.34 2 24 C2 23.01 2 22.02 2 21 C1.34 21 0.68 21 0 21 C0 14.07 0 7.14 0 0 Z " fill="#F1F1F1" transform="translate(20,13)"/>
<path d="M0 0 C0.33 0.66 0.66 1.32 1 2 C1.99 2.33 2.98 2.66 4 3 C3.34 3.66 2.68 4.32 2 5 C1.34 5 0.68 5 0 5 C-0.33 5.99 -0.66 6.98 -1 8 C0.65 8.33 2.3 8.66 4 9 C1.8125 11.5625 1.8125 11.5625 -1 14 C-3.6875 14 -3.6875 14 -6 13 C-8 10 -8 10 -8 7.5 C-6.58172063 3.95430157 -4.39890801 3.48702225 -1 2 C-0.67 1.34 -0.34 0.68 0 0 Z M-3 7 C-3 7.99 -3 8.98 -3 10 C-2.34 10 -1.68 10 -1 10 C-1.33 9.01 -1.66 8.02 -2 7 C-2.33 7 -2.66 7 -3 7 Z " fill="#9E9EA0" transform="translate(39,25)"/>
<path d="M0 0 C0.66 0.66 1.32 1.32 2 2 C1.98252112 4.59269983 1.86231408 7.0525154 1.625 9.625 C1.56828125 10.33140625 1.5115625 11.0378125 1.453125 11.765625 C1.31159079 13.51121361 1.15702613 15.25573673 1 17 C-1.31 17 -3.62 17 -6 17 C-6 12.38 -6 7.76 -6 3 C-5.67 3.66 -5.34 4.32 -5 5 C-4.34 5 -3.68 5 -3 5 C-2.01 6.485 -2.01 6.485 -1 8 C-0.67 5.36 -0.34 2.72 0 0 Z " fill="#7E7E7E" transform="translate(107,28)"/>
<path d="M0 0 C1.98 0 3.96 0 6 0 C6 3.63 6 7.26 6 11 C5.34 11 4.68 11 4 11 C3.67 11.66 3.34 12.32 3 13 C2.01 12.67 1.02 12.34 0 12 C0 8.04 0 4.08 0 0 Z " fill="#F6F5F5" transform="translate(120,17)"/>
<path d="M0 0 C1.66611905 -0.042721 3.33382885 -0.04063832 5 0 C6 1 6 1 6.09765625 2.84765625 C6.04882812 5.92382812 6.04882812 5.92382812 6 9 C2.6875 9.25 2.6875 9.25 -1 9 C-2.9375 7.125 -2.9375 7.125 -4 5 C-4 4.34 -4 3.68 -4 3 C-2.68 2.34 -1.36 1.68 0 1 C0 0.67 0 0.34 0 0 Z " fill="#C6C5C7" transform="translate(120,36)"/>
<path d="M0 0 C3.96 0 7.92 0 12 0 C8 4 8 4 4.75 4.25 C3.8425 4.1675 2.935 4.085 2 4 C1.34 5.32 0.68 6.64 0 8 C-0.33 7.34 -0.66 6.68 -1 6 C-1.99 6 -2.98 6 -4 6 C-3.67 4.35 -3.34 2.7 -3 1 C-2.34 1.33 -1.68 1.66 -1 2 C-0.67 1.34 -0.34 0.68 0 0 Z " fill="#E9E9E9" transform="translate(48,42)"/>
<path d="M0 0 C0.66 0.66 1.32 1.32 2 2 C0.02 2.33 -1.96 2.66 -4 3 C-4 3.66 -4 4.32 -4 5 C-7.3 5 -10.6 5 -14 5 C-12 1 -12 1 -9.25 -0.3125 C-5.72652948 -1.05784953 -3.45944158 -0.94348407 0 0 Z " fill="#E1E1E1" transform="translate(46,52)"/>
<path d="M0 0 C2.64 0 5.28 0 8 0 C7.67 0.66 7.34 1.32 7 2 C5.35 1.67 3.7 1.34 2 1 C1.67 3.31 1.34 5.62 1 8 C1.99 8.33 2.98 8.66 4 9 C3.34 11.31 2.68 13.62 2 16 C1.566875 15.505 1.13375 15.01 0.6875 14.5 C-0.99740483 12.66781808 -0.99740483 12.66781808 -4 13 C-3.27991594 8.39146203 -1.68704061 4.32762591 0 0 Z " fill="#B8B8BA" transform="translate(162,16)"/>
<path d="M0 0 C2.72727273 4.09090909 2.72727273 4.09090909 3 7 C1.15840327 9.48615558 -0.00470711 10.00156904 -3 11 C-3.73323796 13.01508358 -3.73323796 13.01508358 -4 15 C-3.01 15.33 -2.02 15.66 -1 16 C-3.97 16 -6.94 16 -10 16 C-8.68 15.67 -7.36 15.34 -6 15 C-7.93254772 12.9754262 -9.63158688 11.57894208 -12 10 C-9.29120665 8.64560332 -6.99066732 8.93498549 -4 9 C-4 8.34 -4 7.68 -4 7 C-2.68 7 -1.36 7 0 7 C-0.185625 6.401875 -0.37125 5.80375 -0.5625 5.1875 C-1 3 -1 3 0 0 Z " fill="#7B7A7C" transform="translate(172,24)"/>
<path d="M0 0 C0 2.33333333 0 4.66666667 0 7 C0.99 7.66 1.98 8.32 3 9 C3 9.66 3 10.32 3 11 C1.35 11 -0.3 11 -2 11 C-2 10.34 -2 9.68 -2 9 C-4.475 8.01 -4.475 8.01 -7 7 C-6.67 5.02 -6.34 3.04 -6 1 C-3 0 -3 0 0 0 Z " fill="#CACBCC" transform="translate(163,28)"/>
<path d="M0 0 C0.99 0.66 1.98 1.32 3 2 C3.29296875 4.3828125 3.29296875 4.3828125 3.1875 7.125 C3.16042969 8.03507812 3.13335937 8.94515625 3.10546875 9.8828125 C3.07066406 10.58148438 3.03585938 11.28015625 3 12 C2.34 12 1.68 12 1 12 C1 11.34 1 10.68 1 10 C0.360625 9.79375 -0.27875 9.5875 -0.9375 9.375 C-3 8 -3 8 -3.75 4.875 C-3.8325 3.92625 -3.915 2.9775 -4 2 C-2.68 1.34 -1.36 0.68 0 0 Z " fill="#D7D8D9" transform="translate(137,26)"/>
<path d="M0 0 C2.7053871 4.05808065 5 8.04889399 5 13 C2.69 13 0.38 13 -2 13 C-2.66 11.35 -3.32 9.7 -4 8 C-1.03 8.495 -1.03 8.495 2 9 C2 8.01 2 7.02 2 6 C1.01 6 0.02 6 -1 6 C-0.67 4.02 -0.34 2.04 0 0 Z " fill="#BEBFC0" transform="translate(175,32)"/>
<path d="M0 0 C0.639375 0.20625 1.27875 0.4125 1.9375 0.625 C2.5975 0.295 3.2575 -0.035 3.9375 -0.375 C3.98004356 1.62454746 3.97830783 3.62541636 3.9375 5.625 C2.9375 6.625 2.9375 6.625 1.08984375 6.72265625 C-0.9609375 6.69010417 -3.01171875 6.65755208 -5.0625 6.625 C-5.0625 2.625 -5.0625 2.625 -3.8125 0.8125 C-2.0625 -0.375 -2.0625 -0.375 0 0 Z " fill="#D0D0D2" transform="translate(143.0625,38.375)"/>
<path d="M0 0 C0.66 0 1.32 0 2 0 C2 2.31 2 4.62 2 7 C0.68 6.67 -0.64 6.34 -2 6 C-2.33 8.64 -2.66 11.28 -3 14 C-3.99 13.34 -4.98 12.68 -6 12 C-5.50793651 5.6031746 -5.50793651 5.6031746 -3 2.625 C-2.34 2.08875 -1.68 1.5525 -1 1 C-0.67 0.67 -0.34 0.34 0 0 Z " fill="#F1F1F1" transform="translate(110,23)"/>
<path d="M0 0 C0.33 0.66 0.66 1.32 1 2 C0.34 2 -0.32 2 -1 2 C-1.66 3.65 -2.32 5.3 -3 7 C-7.21878192 7.19622241 -10.17010894 6.80230168 -14 5 C-13.67 3.68 -13.34 2.36 -13 1 C-12.34 1 -11.68 1 -11 1 C-11 1.99 -11 2.98 -11 4 C-5.6092003 3.76995266 -5.6092003 3.76995266 -1 1.4375 C-0.67 0.963125 -0.34 0.48875 0 0 Z " fill="#E3E3E3" transform="translate(52,28)"/>
<path d="M0 0 C0.66 0 1.32 0 2 0 C2 0.66 2 1.32 2 2 C2.66 2 3.32 2 4 2 C4 2.99 4 3.98 4 5 C4.66 5 5.32 5 6 5 C6 6.32 6 7.64 6 9 C4.02 9 2.04 9 0 9 C0 6.03 0 3.06 0 0 Z " fill="#E9E9E9" transform="translate(101,36)"/>
<path d="M0 0 C2.64 0 5.28 0 8 0 C7.67 1.32 7.34 2.64 7 4 C8.65 4 10.3 4 12 4 C12 4.33 12 4.66 12 5 C6.72 5 1.44 5 -4 5 C-4 4.67 -4 4.34 -4 4 C-1.69 4 0.62 4 3 4 C3 3.34 3 2.68 3 2 C2.01 1.67 1.02 1.34 0 1 C0 0.67 0 0.34 0 0 Z " fill="#828289" transform="translate(28,42)"/>
<path d="M0 0 C0.66 0 1.32 0 2 0 C1.54803755 1.60597325 1.08817673 3.20972508 0.625 4.8125 C0.36976563 5.70582031 0.11453125 6.59914063 -0.1484375 7.51953125 C-1 10 -1 10 -3 13 C-3.33 12.34 -3.66 11.68 -4 11 C-4.99 11 -5.98 11 -7 11 C-7 10.34 -7 9.68 -7 9 C-6.01 9 -5.02 9 -4 9 C-3.71125 8.071875 -3.4225 7.14375 -3.125 6.1875 C-2 3 -2 3 0 0 Z " fill="#A7A7AA" transform="translate(150,28)"/>
<path d="M0 0 C4.29 0 8.58 0 13 0 C13 1.98 13 3.96 13 6 C11.02 6 9.04 6 7 6 C7.66 4.35 8.32 2.7 9 1 C6.03 1 3.06 1 0 1 C0 0.67 0 0.34 0 0 Z " fill="#6A6E79" transform="translate(85,39)"/>
<path d="M0 0 C0.99 0.33 1.98 0.66 3 1 C3 4.63 3 8.26 3 12 C2.34 11.67 1.68 11.34 1 11 C1 10.01 1 9.02 1 8 C0.34 8 -0.32 8 -1 8 C-1.125 2.25 -1.125 2.25 0 0 Z " fill="#EBEAEB" transform="translate(21,26)"/>
<path d="M0 0 C1.875 1.125 1.875 1.125 2.875 2.125 C2.91563832 3.79117115 2.917721 5.45888095 2.875 7.125 C-0.91111227 6.58412682 -2.67900767 5.00777668 -5.125 2.125 C-5.125 1.465 -5.125 0.805 -5.125 0.125 C-2.125 -0.875 -2.125 -0.875 0 0 Z " fill="#C3C2C3" transform="translate(68.125,9.875)"/>
<path d="M0 0 C2 2 2 2 2.125 5.125 C2.08375 6.07375 2.0425 7.0225 2 8 C0.02 8 -1.96 8 -4 8 C-4 6.35 -4 4.7 -4 3 C-3.01 3.33 -2.02 3.66 -1 4 C-0.67 2.68 -0.34 1.36 0 0 Z " fill="#DFDDDE" transform="translate(124,26)"/>
<path d="M0 0 C1.65 0 3.3 0 5 0 C5.33 1.32 5.66 2.64 6 4 C4.68 3.67 3.36 3.34 2 3 C2 4.65 2 6.3 2 8 C1.01 8.33 0.02 8.66 -1 9 C-2.0326802 6.21176345 -2.04509293 5.1322726 -1.0625 2.25 C-0.711875 1.5075 -0.36125 0.765 0 0 Z " fill="#E6E6E6" transform="translate(164,17)"/>
<path d="M0 0 C0.99 0 1.98 0 3 0 C3.54372951 3.05847848 4 5.88772805 4 9 C3.34 9 2.68 9 2 9 C1.67 9.66 1.34 10.32 1 11 C0.67 10.01 0.34 9.02 0 8 C-1.65 7.67 -3.3 7.34 -5 7 C-5 6.67 -5 6.34 -5 6 C-3.02 6 -1.04 6 1 6 C0.67 4.02 0.34 2.04 0 0 Z " fill="#8C8D8F" transform="translate(48,20)"/>
<path d="M0 0 C1.98 0.99 3.96 1.98 6 3 C5.67 4.32 5.34 5.64 5 7 C5 6.34 5 5.68 5 5 C2.69 5.66 0.38 6.32 -2 7 C-1.34 4.69 -0.68 2.38 0 0 Z " fill="#A5A6A8" transform="translate(155,34)"/>
<path d="M0 0 C1.32 0 2.64 0 4 0 C4 2.31 4 4.62 4 7 C2.68 7 1.36 7 0 7 C0 4.69 0 2.38 0 0 Z " fill="#E3E5E3" transform="translate(67,34)"/>
<path d="M0 0 C1.32 0.33 2.64 0.66 4 1 C4 2.65 4 4.3 4 6 C2.02 6.99 2.02 6.99 0 8 C0 5.36 0 2.72 0 0 Z " fill="#E0E0E1" transform="translate(55,30)"/>
<path d="M0 0 C2.31 0.33 4.62 0.66 7 1 C7 1.99 7 2.98 7 4 C2.545 4.495 2.545 4.495 -2 5 C-1.34 3.35 -0.68 1.7 0 0 Z " fill="#EFEFEF" transform="translate(42,22)"/>
<path d="M0 0 C0.33 0.66 0.66 1.32 1 2 C1.99 2 2.98 2 4 2 C3.67 3.65 3.34 5.3 3 7 C1.68 7 0.36 7 -1 7 C-2 4 -2 4 -1.0625 1.8125 C-0.5365625 0.9153125 -0.5365625 0.9153125 0 0 Z " fill="#D8D8D8" transform="translate(169,32)"/>
<path d="M0 0 C0.66 0 1.32 0 2 0 C1.30058404 3.14737182 0.23921302 6.02588876 -1 9 C-1.99 8.67 -2.98 8.34 -4 8 C-4 6.68 -4 5.36 -4 4 C-3.01 3.67 -2.02 3.34 -1 3 C-0.67 2.01 -0.34 1.02 0 0 Z " fill="#EBECEB" transform="translate(149,25)"/>
<path d="M0 0 C2.64 0 5.28 0 8 0 C7.67 0.66 7.34 1.32 7 2 C5.35 1.67 3.7 1.34 2 1 C1.67 2.65 1.34 4.3 1 6 C0.01 6.33 -0.98 6.66 -2 7 C-1.34 4.69 -0.68 2.38 0 0 Z " fill="#797E86" transform="translate(162,16)"/>
<path d="M0 0 C3.3 0 6.6 0 10 0 C9.67 0.99 9.34 1.98 9 3 C4.25 4.125 4.25 4.125 2 3 C2 2.34 2 1.68 2 1 C1.34 0.67 0.68 0.34 0 0 Z " fill="#EFEFEF" transform="translate(37,9)"/>
<path d="M0 0 C4.75 0.875 4.75 0.875 7 2 C7 2.66 7 3.32 7 4 C4.36 4 1.72 4 -1 4 C-0.67 2.68 -0.34 1.36 0 0 Z " fill="#E9E9E9" transform="translate(24,42)"/>
<path d="M0 0 C0.33 0.66 0.66 1.32 1 2 C1.99 2.33 2.98 2.66 4 3 C1.23776722 5.76223278 -1.20706617 5.57856291 -5 6 C-4.67 5.01 -4.34 4.02 -4 3 C-3.01 2.67 -2.02 2.34 -1 2 C-0.67 1.34 -0.34 0.68 0 0 Z " fill="#A4A5A7" transform="translate(39,25)"/>
<path d="M0 0 C0 2.31 0 4.62 0 7 C-1.32 6.67 -2.64 6.34 -4 6 C-4.33 4.68 -4.66 3.36 -5 2 C-2 0 -2 0 0 0 Z " fill="#F8F8F8" transform="translate(112,23)"/>
<path d="M0 0 C2.875 -0.125 2.875 -0.125 6 0 C6.66 0.66 7.32 1.32 8 2 C7.34 2 6.68 2 6 2 C6 2.66 6 3.32 6 4 C4.68 4 3.36 4 2 4 C1.67 3.34 1.34 2.68 1 2 C0.34 2.66 -0.32 3.32 -1 4 C-0.67 2.68 -0.34 1.36 0 0 Z " fill="#909090" transform="translate(50,51)"/>
<path d="M0 0 C0.928125 0.0825 1.85625 0.165 2.8125 0.25 C-0.51057692 4.18846154 -0.51057692 4.18846154 -3.9375 4.5 C-4.68 4.4175 -5.4225 4.335 -6.1875 4.25 C-4.36434338 1.00883268 -3.82500054 0.30000004 0 0 Z " fill="#F3F3F3" transform="translate(57.1875,41.75)"/>
<path d="M0 0 C0 1.65 0 3.3 0 5 C-2.31 4.34 -4.62 3.68 -7 3 C-7 2.34 -7 1.68 -7 1 C-2.25 0 -2.25 0 0 0 Z " fill="#EBEBEB" transform="translate(95,28)"/>
<path d="M0 0 C2 3 2 3 1.625 5.6875 C1.41875 6.450625 1.2125 7.21375 1 8 C0.01 8 -0.98 8 -2 8 C-1.125 2.25 -1.125 2.25 0 0 Z " fill="#AFB0B2" transform="translate(147,21)"/>
<path d="M0 0 C1.98 0 3.96 0 6 0 C4.68 0.33 3.36 0.66 2 1 C2.66 1.33 3.32 1.66 4 2 C2.25 5.875 2.25 5.875 0 7 C0 4.69 0 2.38 0 0 Z " fill="#ADB1B8" transform="translate(101,16)"/>
<path d="M0 0 C1.32 0.33 2.64 0.66 4 1 C4 1.66 4 2.32 4 3 C1.29120665 4.35439668 -1.00933268 4.06501451 -4 4 C-4.33 3.34 -4.66 2.68 -5 2 C-3.68 2.33 -2.36 2.66 -1 3 C-0.67 2.01 -0.34 1.02 0 0 Z " fill="#DBDBDB" transform="translate(47,9)"/>
<path d="M0 0 C-1.32 0.33 -2.64 0.66 -4 1 C-4 1.66 -4 2.32 -4 3 C-3.34 3.33 -2.68 3.66 -2 4 C-3.32 4 -4.64 4 -6 4 C-6 2.68 -6 1.36 -6 0 C-3.50907189 -1.24546405 -2.58919267 -0.7767578 0 0 Z " fill="#BABBBC" transform="translate(27,10)"/>
<path d="M0 0 C1.98 0 3.96 0 6 0 C5.6875 1.9375 5.6875 1.9375 5 4 C4.01 4.33 3.02 4.66 2 5 C1.34 4.34 0.68 3.68 0 3 C0 2.01 0 1.02 0 0 Z " fill="#B2B2B5" transform="translate(65,41)"/>
<path d="M0 0 C0.66 1.32 1.32 2.64 2 4 C-0.64 4 -3.28 4 -6 4 C-6 3.34 -6 2.68 -6 2 C-2.25 0 -2.25 0 0 0 Z " fill="#E4E0E5" transform="translate(29,9)"/>
<path d="M0 0 C1.2077558 3.62326739 0.54311128 4.64146369 -1 8 C-1.66 8 -2.32 8 -3 8 C-3.33 6.68 -3.66 5.36 -4 4 C-3.01 3.67 -2.02 3.34 -1 3 C-0.67 2.01 -0.34 1.02 0 0 Z " fill="#CBCBCB" transform="translate(105,25)"/>
<path d="M0 0 C0.33 1.32 0.66 2.64 1 4 C-0.98 4.33 -2.96 4.66 -5 5 C-5 3.68 -5 2.36 -5 1 C-3 0 -3 0 0 0 Z " fill="#A8A9AB" transform="translate(171,19)"/>
<path d="M0 0 C1.1446875 0.2784375 1.1446875 0.2784375 2.3125 0.5625 C5.08967375 1.22819173 5.08967375 1.22819173 8 0 C7.67 0.99 7.34 1.98 7 3 C4.69 3 2.38 3 0 3 C0 2.01 0 1.02 0 0 Z " fill="#9FA0A4" transform="translate(152,42)"/>
<path d="M0 0 C0.99 0.33 1.98 0.66 3 1 C2.01 1.495 2.01 1.495 1 2 C-0.01187895 3.65948148 -1.0126546 5.32580562 -2 7 C-2.33 7 -2.66 7 -3 7 C-3.1875 4.625 -3.1875 4.625 -3 2 C-2.01 1.34 -1.02 0.68 0 0 Z " fill="#CCCCCC" transform="translate(82,38)"/>
<path d="M0 0 C1.65 0 3.3 0 5 0 C4.67 1.32 4.34 2.64 4 4 C3.01 4 2.02 4 1 4 C0.67 2.68 0.34 1.36 0 0 Z " fill="#B0B1B3" transform="translate(20,41)"/>
<path d="M0 0 C1.99097846 2.98646769 2.94124926 5.59687262 4 9 C3.34 9 2.68 9 2 9 C2 8.01 2 7.02 2 6 C1.01 6 0.02 6 -1 6 C-0.67 4.02 -0.34 2.04 0 0 Z " fill="#9E9FA4" transform="translate(175,32)"/>
<path d="M0 0 C0.66 0 1.32 0 2 0 C1.34 2.31 0.68 4.62 0 7 C-0.99 6.67 -1.98 6.34 -3 6 C-2.01 4.02 -1.02 2.04 0 0 Z " fill="#ADADB1" transform="translate(150,28)"/>
<path d="M0 0 C1.32 0.33 2.64 0.66 4 1 C3.6875 2.9375 3.6875 2.9375 3 5 C2.01 5.33 1.02 5.66 0 6 C0 4.02 0 2.04 0 0 Z " fill="#EDEDED" transform="translate(101,23)"/>
<path d="M0 0 C0 1.65 0 3.3 0 5 C-0.33 4.34 -0.66 3.68 -1 3 C-1.66 3 -2.32 3 -3 3 C-3 3.66 -3 4.32 -3 5 C-3.66 5 -4.32 5 -5 5 C-5 3.68 -5 2.36 -5 1 C-3 0 -3 0 0 0 Z " fill="#EAEAEA" transform="translate(163,28)"/>
</svg>
