<?xml version="1.0" standalone="no"?>
<!DOCTYPE svg PUBLIC "-//W3C//DTD SVG 20010904//EN"
 "http://www.w3.org/TR/2001/REC-SVG-20010904/DTD/svg10.dtd">
<svg version="1.0" xmlns="http://www.w3.org/2000/svg"
 width="200.000000pt" height="64.000000pt" viewBox="0 0 200.000000 64.000000"
 preserveAspectRatio="xMidYMid meet">

<g transform="translate(0.000000,64.000000) scale(0.100000,-0.100000)"
fill="#000000" stroke="none">
<path d="M240 543 c-35 -12 -40 -35 -40 -183 0 -181 -1 -180 118 -180 l82 0 0
-29 c0 -26 -4 -30 -32 -33 -25 -2 -34 -8 -36 -26 -3 -22 -2 -22 122 -22 94 0
126 3 126 13 0 23 -15 35 -45 39 -24 2 -31 8 -33 31 l-3 27 85 0 c119 0 116
-4 116 185 0 148 -1 154 -22 169 -19 13 -57 16 -223 15 -110 0 -207 -3 -215
-6z m425 -178 l0 -140 -203 -5 c-111 -3 -207 -3 -212 -2 -11 4 -14 275 -3 286
4 3 99 5 212 4 l206 -3 0 -140z"/>
<path d="M422 458 c-7 -7 -12 -23 -12 -37 0 -32 -28 -68 -55 -73 -26 -4 -43
-51 -25 -72 16 -20 54 -21 70 -1 17 20 96 20 104 0 7 -18 47 -20 64 -3 26 26
7 78 -28 78 -18 0 -42 42 -44 78 -3 37 -48 56 -74 30z m48 -33 c0 -8 -6 -15
-14 -15 -17 0 -28 14 -19 24 12 12 33 6 33 -9z m22 -70 c14 -31 12 -32 -32
-36 -49 -4 -62 5 -48 36 16 35 64 35 80 0z m-109 -42 c9 -9 -13 -34 -24 -27
-14 8 -11 34 4 34 8 0 17 -3 20 -7z m170 0 c9 -9 -13 -34 -24 -27 -14 8 -11
34 4 34 8 0 17 -3 20 -7z"/>
<path d="M790 330 l0 -140 90 0 c89 0 90 0 90 25 0 24 -3 25 -60 25 l-60 0 0
35 0 35 50 0 c47 0 50 2 50 25 0 23 -3 25 -50 25 -49 0 -50 1 -50 30 l0 30 60
0 c57 0 60 1 60 25 0 25 -1 25 -90 25 l-90 0 0 -140z"/>
<path d="M1012 333 l3 -138 27 -3 27 -3 3 91 3 91 64 -91 c56 -79 68 -91 90
-88 l26 3 3 138 3 137 -30 0 -30 0 -3 -87 -3 -88 -63 88 c-55 76 -67 87 -93
87 l-30 0 3 -137z"/>
<path d="M1326 373 c70 -197 64 -184 98 -181 30 3 32 7 78 133 26 72 48 133
48 138 0 4 -13 7 -28 7 -26 0 -29 -5 -61 -101 -18 -55 -36 -98 -39 -94 -4 3
-21 48 -38 98 -29 88 -32 92 -62 95 l-32 3 36 -98z"/>
<path d="M1626 462 c-9 -15 -96 -252 -96 -262 0 -6 12 -10 26 -10 19 0 28 7
37 30 11 28 15 30 64 30 48 0 54 -2 68 -30 11 -21 23 -30 40 -30 14 0 25 4 25
9 0 5 -22 67 -49 138 -47 122 -50 128 -79 131 -17 2 -33 -1 -36 -6z m52 -111
c16 -52 17 -51 -24 -51 -30 0 -35 3 -29 18 4 9 12 29 17 45 14 37 23 34 36
-12z"/>
</g>
</svg>
